PathFileType	4	(X/Y/Z)	Walk1_0-155.trc
DataRate	CameraRate	NumFrames	NumMarkers	Units	OrigDataRate	OrigDataStartFrame	OrigNumFrames
30	30	6	22	m	30	0	155
Frame#	Time	Hip			RHip			RKnee			RAnkle			RBigToe			RSmallToe			RHeel			LHip			LKnee			LAnkle			LBigToe			LSmallToe			LHeel			Neck			Head			Nose			RShoulder			RElbow			RWrist			LShoulder			LElbow			LWrist		
		X1	Y1	Z1	X2	Y2	Z2	X3	Y3	Z3	X4	Y4	Z4	X5	Y5	Z5	X6	Y6	Z6	X7	Y7	Z7	X8	Y8	Z8	X9	Y9	Z9	X10	Y10	Z10	X11	Y11	Z11	X12	Y12	Z12	X13	Y13	Z13	X14	Y14	Z14	X15	Y15	Z15	X16	Y16	Z16	X17	Y17	Z17	X18	Y18	Z18	X19	Y19	Z19	X20	Y20	Z20	X21	Y21	Z21	X22	Y22	Z22
1	0.03333333333333333	-2.5743992586311633	0.8363025214356734	0.3869587868022081	-2.5569485562449272	0.8039081901573255	0.4772390376240285	-2.5813246484590415	0.4533026559986016	0.49829438700249346	-2.573557737567328	0.08663120762283712	0.5028654757023611	-2.3846357858972986	-0.0006922189070648454	0.5356784088042026	-2.435982946873436	-0.00038613807289347886	0.6014422381993301	-2.6497329677539843	-0.011847662597236372	0.49125141219927115	-2.570017141864227	0.8043315647081486	0.30678882862935963	-2.5488441618224167	0.46105473746574843	0.2899725094460898	-2.5685682882759204	0.08829204358474657	0.28097995168562456	-2.379908619821215	0.0017479461576645201	0.2711429764267938	-2.422410783789833	-0.004912082579782721	0.20697584098099542	-2.612682530436281	-0.0019179798648489273	0.2902645419728654	-2.5647368714972374	1.532757794566259	0.3552770809582654	-2.5257796066250267	1.7883719317564262	0.32746629167706	-2.4393451081916755	1.6656118843049659	0.37184911778970203	-2.588693267716048	1.4122502811897404	0.5347305626600142	-2.545213577252469	1.1046666177447837	0.6211366387872239	-2.4717817731122818	0.8604113081016675	0.6091868298240061	-2.57790392200811	1.4089898803781413	0.2053187307413758	-2.5534026926465505	1.1077754787579226	0.14880940628158804	-2.487376622056245	0.8634176055673183	0.16304689523959767
2	0.06666666666666667	-2.5748166931488807	0.8347695942232748	0.3874057800537026	-2.5579652122379364	0.8026184471446537	0.47877091491030377	-2.5810805001753394	0.45038023333656074	0.49824875240553107	-2.5748239005104816	0.08492541064066049	0.5042825000272438	-2.384244381726212	0.0017490774835602835	0.5389454402513181	-2.4604088773624517	0.007507506227080622	0.5851580530163446	-2.6500682616957354	-0.009618731408689317	0.4901350829506757	-2.5716401611196122	0.8061534913475122	0.3035393814685892	-2.5503843244433817	0.4628815093132633	0.286724284344689	-2.5678596057340624	0.08569297836441708	0.27857710463543117	-2.377328905651288	-0.0013703742600187764	0.2701364078339169	-2.4198488465116474	-0.0028859271091570913	0.20908445874199227	-2.61247003433368	-0.00416564289378063	0.29236888667872424	-2.564737777825513	1.5315347243380995	0.3560333063450366	-2.5247942467648863	1.786799157054293	0.3211630830842082	-2.430930224090308	1.6639964962307325	0.3485578386177015	-2.5908111866611114	1.4110414622234777	0.5411805978869603	-2.543620837940951	1.1010552421938098	0.6190352804617049	-2.4683031831336506	0.8589335638037441	0.6056392336738469	-2.578555388569121	1.407610117366982	0.201600907684285	-2.552357209513134	1.1056748045160036	0.14923774780629068	-2.4883977709748106	0.8636602851629149	0.16405524138254676
3	0.1	-2.573156454815558	0.8346527655939817	0.3839880518863173	-2.557703297356547	0.80493376405758	0.47627838587554716	-2.580108956645268	0.4511886608912166	0.49910387098796055	-2.5716654933233087	0.08873507819799256	0.5086234646769089	-2.380753493167014	0.0022658091170038542	0.5400683362986345	-2.4329335270569388	0.0007873549140938402	0.6016872593251404	-2.6513633082156223	-0.008722121056190241	0.4911061568310342	-2.566697161710648	0.804033790765372	0.2999601549431533	-2.547367374703994	0.4622537296977142	0.28603856376354664	-2.568876708163896	0.08261573092783718	0.2782045607514829	-2.3806241229239777	-0.0009488657879126868	0.27267555038355595	-2.4201712084750406	-0.003081413190007548	0.20638055132889302	-2.613520628097873	-0.00533057522992248	0.2904011699178283	-2.5608928322677955	1.5323405018151102	0.3542301175189834	-2.5180765657864863	1.788595930119132	0.31615778540381695	-2.428162653901445	1.6622554731049186	0.3463228228299966	-2.591383298175836	1.4101192696437768	0.5394643443364429	-2.5425738674465164	1.0994169563136205	0.6160053021305008	-2.469804822844376	0.856576744636637	0.605175590947002	-2.575756218190904	1.4045899518309872	0.19899999912556035	-2.551296100779422	1.1022713874633285	0.14698151336561435	-2.4846722507922463	0.860115318199808	0.1614450309474569
4	0.13333333333333333	-2.5730000964388773	0.8347269938747907	0.383642105600175	-2.5577631268053875	0.8064580353225894	0.4772533534726976	-2.5833323017916916	0.4504063692169535	0.499887291407556	-2.5716772979882405	0.08993914357408143	0.5122416773668255	-2.381050644149595	0.004654547144744277	0.5412795848593371	-2.433295016700074	0.0030154815802103272	0.6026624927191083	-2.650599104185992	-0.010713070487516508	0.4902782178645796	-2.5682113379429192	0.8048961107216815	0.29917810517194715	-2.544314504011187	0.4605515013094542	0.2864337316746416	-2.5683554935492805	0.08327768678386999	0.2779430183325629	-2.383055701346745	-0.00240126258271526	0.2731019295276954	-2.4196898043215276	-0.004694989378551675	0.20734265824947107	-2.6130675565833617	-0.0062964262974624105	0.2899923344860453	-2.560930540496035	1.5307860796898984	0.3488591073766559	-2.517741013709114	1.788742407747134	0.31738165357048664	-2.426704697433202	1.6612353681144336	0.34133289707409936	-2.5926261678812517	1.411680225342348	0.5343929449731424	-2.5419239112372436	1.1003258851793138	0.617776986213838	-2.467278860041966	0.8593527106567281	0.6052347804139058	-2.5725125499831623	1.4089635486549046	0.19662394925016974	-2.5497436337654182	1.1026218822712663	0.14441487277834936	-2.4830633928943766	0.8605799891620874	0.15833684406968299
5	0.16666666666666666	-2.573161889273422	0.8345692011358457	0.38092510988752887	-2.5592226930661597	0.8053065764555307	0.4756081782060192	-2.584058111567612	0.45120385270437824	0.49855132775367894	-2.5724924481435245	0.0901723195035672	0.5089753788118673	-2.382083931262422	0.0016443180790326082	0.5419679422035256	-2.4329391669194225	0.0009081702057660491	0.600597732507212	-2.651046935631798	-0.009527379521067487	0.4914006343157246	-2.568250232346536	0.8041952182153365	0.2980465229475726	-2.5383781763360393	0.464710438990818	0.28055137806482844	-2.5676080046509537	0.08221897776780188	0.2794669238477219	-2.380364123975605	0.0012631764561060871	0.2715916816306393	-2.4189363636011416	-0.005965729644003293	0.2087882965349035	-2.6130932603245043	-0.005122920337687142	0.28945235351430504	-2.56025894821168	1.5304760308104741	0.3463511262841583	-2.514401690655732	1.788453111634122	0.3030310838372167	-2.424473249971218	1.6704025949672432	0.35110043904476695	-2.5890547262807138	1.4119571159408746	0.5317941281034105	-2.5392846016243085	1.1000885113840375	0.6156040825345436	-2.46763346094611	0.8574009580809695	0.6056209819455047	-2.575337880301963	1.4067933319001364	0.19305417431817837	-2.550114174949402	1.1018812452453466	0.14063575051429805	-2.4814506155733755	0.8587048590661366	0.15778298576992336
6	0.2	-2.571072180971073	0.8348818172745524	0.3786782474533459	-2.5556885592776544	0.8073859037343106	0.47546431048537163	-2.5821925980201716	0.4516174401151565	0.49684580960479285	-2.575136877998044	0.0912247287757737	0.5073152596204809	-2.388366860367599	0.0003630273940526224	0.5419263743666275	-2.4627969752127212	0.009514418271604541	0.5869707771892783	-2.6504285083657413	-0.006914607812201898	0.4922108382415673	-2.5680007193242704	0.8043210657374541	0.2952338493042049	-2.537181422367285	0.46522465909803096	0.28051733601174317	-2.566529807259752	0.08282180254699106	0.27950754361454794	-2.3806506958129936	0.0013330131960286211	0.27369223187211716	-2.419961354423849	-0.0008706507987269623	0.20752513957098506	-2.6149869561213412	-0.0045651055073812384	0.290235706131959	-2.55788270880318	1.5310220866217221	0.34085097760538	-2.5126412417493302	1.7877259699002226	0.295298228810689	-2.4228874752660565	1.669348813021481	0.3548588081239383	-2.584809744710104	1.412773876036882	0.5234995223964309	-2.537442576861002	1.099785712191069	0.6104102202820061	-2.4666892635859012	0.8598974986659451	0.606029461442944	-2.6156917513407794	1.4242760278332471	0.13277845599423183	-2.549325745335191	1.1020997042760052	0.13904384335339906	-2.480433674140512	0.8592649384479636	0.15799332270260422
